<?xml version="1.0" encoding="utf-8"?>
<!-- Generator: Adobe Illustrator 25.4.1, SVG Export Plug-In . SVG Version: 6.00 Build 0)  -->
<svg version="1.1" id="Warstwa_1" xmlns="http://www.w3.org/2000/svg" xmlns:xlink="http://www.w3.org/1999/xlink" x="0px" y="0px"
	 viewBox="0 0 112.9 53.7" style="enable-background:new 0 0 112.9 53.7;" xml:space="preserve">
<style type="text/css">
	.st0{fill:#AAAAAA;}
</style>
<g>
	<path class="st0" d="M61.8,18.1c0.5-0.4,0.9-0.8,1.3-1.2c0.4-0.4,0.6-1,0.8-1.5c0.2-0.6,0.3-1.1,0.3-1.8c0-0.8-0.1-1.5-0.4-2.2
		c-0.3-0.6-0.7-1.2-1.3-1.7c-0.6-0.5-1.3-0.8-2.2-1.1c-0.8-0.3-1.9-0.4-3.2-0.4h-5.7v18.6h3.4v-7.3c0,0,3.3,0,5.3-0.7
		C60.7,18.8,61.3,18.5,61.8,18.1z M58.6,16.9c-0.5,0.1-1.1,0.2-1.7,0.2h-2.2v-6.2H57c1.3,0,2.2,0.3,2.9,0.8s0.9,1.3,0.9,2.2
		c0,0.5-0.1,0.9-0.2,1.3s-0.4,0.8-0.7,1.1C59.6,16.5,59.1,16.7,58.6,16.9z"/>
	<path class="st0" d="M61.9,20.9c-1.1,0.8-2.6,0.8-3.3,0.8l2.9,4.6c0.1,0.2,0.4,0.4,0.6,0.5c0.2,0.1,0.5,0.2,0.8,0.2h3.2L61.9,20.9z
		"/>
</g>
<g>
	<g>
		<path class="st0" d="M25.8,35.6c-0.1,0.1-0.1,0.2-0.2,0.3s-0.1,0.1-0.3,0.1s-0.2-0.1-0.4-0.1c-0.1-0.1-0.3-0.2-0.5-0.3
			c-0.2-0.1-0.4-0.2-0.6-0.3c-0.3-0.1-0.6-0.1-0.9-0.1c-0.3,0-0.6,0.1-0.8,0.1c-0.2,0.1-0.4,0.2-0.6,0.3c-0.1,0.1-0.3,0.3-0.4,0.5
			s-0.1,0.4-0.1,0.6c0,0.3,0.1,0.5,0.2,0.7s0.4,0.4,0.6,0.5c0.3,0.1,0.6,0.3,0.8,0.4c0.4,0.1,0.6,0.2,1,0.4s0.7,0.3,1,0.4
			c0.4,0.1,0.6,0.4,0.8,0.6c0.3,0.2,0.5,0.6,0.6,0.8c0.1,0.4,0.2,0.8,0.2,1.3c0,0.6-0.1,1.1-0.3,1.5c-0.2,0.5-0.4,0.8-0.8,1.2
			s-0.8,0.6-1.3,0.8c-0.5,0.2-1,0.3-1.6,0.3c-0.4,0-0.8-0.1-1.1-0.1c-0.4-0.1-0.7-0.2-1.1-0.4c-0.4-0.1-0.7-0.2-1-0.4
			s-0.6-0.4-0.8-0.6l0.6-1.1c0.1-0.1,0.1-0.1,0.2-0.2c0.1-0.1,0.2-0.1,0.3-0.1c0.1,0,0.3,0.1,0.4,0.1c0.1,0.1,0.4,0.2,0.6,0.4
			c0.2,0.1,0.5,0.3,0.8,0.4c0.3,0.1,0.6,0.1,1.1,0.1c0.6,0,1.1-0.1,1.5-0.4c0.4-0.3,0.5-0.7,0.5-1.3c0-0.3-0.1-0.6-0.2-0.8
			c-0.1-0.2-0.4-0.4-0.6-0.5c-0.2-0.1-0.5-0.2-0.8-0.3c-0.4-0.1-0.6-0.2-1-0.3c-0.4-0.1-0.7-0.2-1-0.4c-0.4-0.1-0.6-0.4-0.8-0.6
			c-0.4-0.2-0.6-0.6-0.7-0.9c-0.1-0.4-0.2-0.8-0.2-1.3c0-0.4,0.1-0.8,0.3-1.3c0.1-0.4,0.4-0.8,0.8-1.1c0.4-0.4,0.7-0.6,1.2-0.8
			c0.5-0.2,1.1-0.3,1.7-0.3c0.7,0,1.3,0.1,2,0.4c0.6,0.2,1.1,0.5,1.5,0.9L25.8,35.6z"/>
		<path class="st0" d="M31.5,36.7c0.6,0,1.2,0.1,1.7,0.3s1,0.5,1.3,0.8c0.4,0.4,0.6,0.8,0.8,1.3c0.2,0.6,0.3,1.1,0.3,1.8
			s-0.1,1.3-0.3,1.8c-0.2,0.6-0.5,1-0.8,1.4c-0.4,0.4-0.8,0.7-1.3,0.8c-0.6,0.1-1.1,0.4-1.7,0.4s-1.2-0.1-1.7-0.3
			c-0.5-0.2-1-0.5-1.3-0.8c-0.4-0.4-0.6-0.8-0.8-1.4c-0.2-0.6-0.3-1.1-0.3-1.8c0-0.6,0.1-1.3,0.3-1.8c0.2-0.6,0.5-1,0.8-1.3
			c0.4-0.4,0.8-0.6,1.3-0.8S30.9,36.7,31.5,36.7z M31.5,43.8c0.7,0,1.2-0.2,1.5-0.7c0.4-0.5,0.5-1.2,0.5-2c0-0.9-0.1-1.6-0.5-2.1
			c-0.4-0.5-0.8-0.7-1.5-0.7c-0.7,0-1.3,0.2-1.5,0.7c-0.3,0.5-0.5,1.2-0.5,2c0,0.8,0.1,1.6,0.5,2C30.3,43.5,30.8,43.8,31.5,43.8z"/>
		<path class="st0" d="M42.9,38.6c-0.1,0.1-0.1,0.1-0.1,0.2c0,0.1-0.1,0.1-0.3,0.1c-0.1,0-0.2,0-0.3-0.1c-0.1-0.1-0.2-0.1-0.4-0.2
			s-0.3-0.2-0.5-0.2c-0.2-0.1-0.4-0.1-0.7-0.1c-0.4,0-0.7,0.1-0.9,0.2c-0.3,0.1-0.5,0.3-0.7,0.6c-0.2,0.2-0.3,0.6-0.4,0.8
			c-0.1,0.4-0.1,0.7-0.1,1.2c0,0.4,0.1,0.8,0.1,1.2c0.1,0.4,0.2,0.6,0.4,0.9c0.2,0.2,0.4,0.4,0.6,0.6c0.3,0.1,0.6,0.2,0.8,0.2
			s0.6-0.1,0.8-0.1c0.2-0.1,0.4-0.1,0.5-0.3c0.1-0.1,0.3-0.2,0.4-0.3c0.1-0.1,0.2-0.1,0.4-0.1s0.3,0.1,0.4,0.2l0.6,0.8
			c-0.2,0.3-0.5,0.5-0.7,0.6c-0.3,0.2-0.6,0.4-0.8,0.4c-0.3,0.1-0.6,0.2-0.8,0.2c-0.3,0.1-0.6,0.1-0.9,0.1c-0.5,0-1-0.1-1.5-0.3
			c-0.5-0.2-0.8-0.5-1.2-0.8c-0.4-0.4-0.6-0.8-0.8-1.3c-0.2-0.6-0.3-1.1-0.3-1.8c0-0.6,0.1-1.2,0.3-1.7c0.2-0.6,0.4-1,0.8-1.4
			c0.4-0.4,0.8-0.7,1.3-0.9s1.1-0.4,1.8-0.4s1.2,0.1,1.7,0.3c0.5,0.2,0.9,0.5,1.3,0.8L42.9,38.6z"/>
		<path class="st0" d="M46.8,34.4c0,0.1-0.1,0.4-0.1,0.5c-0.1,0.1-0.1,0.3-0.3,0.4s-0.3,0.2-0.4,0.3c-0.1,0.1-0.4,0.1-0.5,0.1
			c-0.1,0-0.4,0-0.5-0.1s-0.3-0.1-0.4-0.3c-0.1-0.1-0.2-0.3-0.3-0.4c-0.1-0.1-0.1-0.4-0.1-0.5c0-0.2,0-0.4,0.1-0.5
			c0.1-0.1,0.1-0.3,0.3-0.4c0.1-0.1,0.3-0.2,0.4-0.3c0.1-0.1,0.4-0.1,0.5-0.1c0.2,0,0.4,0,0.5,0.1s0.3,0.1,0.4,0.3
			c0.1,0.1,0.2,0.3,0.3,0.4C46.8,34,46.8,34.2,46.8,34.4z M46.5,36.8v8.4h-2v-8.4H46.5z"/>
		<path class="st0" d="M48.1,38c1-0.9,2.1-1.3,3.5-1.3c0.5,0,0.9,0.1,1.3,0.2s0.7,0.4,1,0.7c0.3,0.3,0.5,0.6,0.6,1.1
			c0.1,0.4,0.2,0.8,0.2,1.3v5.3h-0.9c-0.2,0-0.4,0-0.4-0.1c-0.1-0.1-0.2-0.1-0.2-0.4l-0.3-0.7c-0.2,0.2-0.4,0.4-0.6,0.5
			c-0.2,0.1-0.4,0.3-0.6,0.4c-0.2,0.1-0.4,0.1-0.7,0.2c-0.3,0.1-0.5,0.1-0.8,0.1c-0.4,0-0.7-0.1-1-0.1c-0.3-0.1-0.6-0.2-0.8-0.4
			s-0.4-0.4-0.5-0.7c-0.1-0.3-0.2-0.6-0.2-1c0-0.2,0.1-0.4,0.1-0.6c0.1-0.2,0.2-0.4,0.4-0.6c0.1-0.2,0.4-0.4,0.6-0.6
			c0.3-0.1,0.6-0.4,0.9-0.4c0.4-0.1,0.8-0.2,1.3-0.3c0.5-0.1,1.1-0.1,1.7-0.1v-0.5c0-0.6-0.1-1-0.4-1.3c-0.2-0.3-0.6-0.4-1.1-0.4
			c-0.4,0-0.6,0.1-0.8,0.1c-0.2,0.1-0.4,0.1-0.6,0.3c-0.1,0.1-0.3,0.2-0.4,0.3c-0.1,0.1-0.3,0.1-0.4,0.1c-0.1,0-0.3-0.1-0.4-0.1
			c-0.1-0.1-0.2-0.1-0.2-0.3L48.1,38z M52.7,41.7c-0.6,0-1.1,0.1-1.5,0.1c-0.4,0.1-0.7,0.1-1,0.3c-0.2,0.1-0.4,0.3-0.5,0.4
			c-0.1,0.1-0.1,0.4-0.1,0.5c0,0.4,0.1,0.6,0.3,0.8c0.2,0.1,0.5,0.2,0.8,0.2c0.4,0,0.8-0.1,1.1-0.2s0.6-0.4,0.9-0.7V41.7z"/>
		<path class="st0" d="M58.3,33.1v12.2h-2V33.1H58.3z"/>
		<path class="st0" d="M73.2,45.2h-2c-0.4,0-0.6-0.1-0.8-0.4L67.9,41c-0.1-0.1-0.2-0.2-0.3-0.3c-0.1-0.1-0.3-0.1-0.5-0.1h-0.9v4.6
			H64V33.4h3.6c0.8,0,1.5,0.1,2,0.3s1.1,0.4,1.4,0.7c0.4,0.3,0.6,0.6,0.8,1.1c0.1,0.4,0.3,0.9,0.3,1.4c0,0.4-0.1,0.8-0.1,1.1
			c-0.1,0.4-0.3,0.7-0.5,1s-0.5,0.6-0.8,0.8c-0.4,0.2-0.7,0.4-1.1,0.5c0.1,0.1,0.3,0.2,0.4,0.3c0.1,0.1,0.2,0.2,0.4,0.4L73.2,45.2z
			 M67.5,39c0.4,0,0.8-0.1,1.1-0.1c0.3-0.1,0.6-0.3,0.8-0.4c0.2-0.2,0.4-0.4,0.4-0.6c0.1-0.3,0.1-0.6,0.1-0.8c0-0.6-0.2-1.1-0.6-1.4
			c-0.4-0.4-1-0.5-1.8-0.5h-1.4V39C66.1,39,67.5,39,67.5,39z"/>
		<path class="st0" d="M77,36.7c0.6,0,1.2,0.1,1.7,0.3s1,0.5,1.3,0.8c0.4,0.4,0.6,0.8,0.8,1.3c0.2,0.6,0.3,1.1,0.3,1.8
			s-0.1,1.3-0.3,1.8c-0.2,0.6-0.5,1-0.8,1.4c-0.4,0.4-0.8,0.7-1.3,0.8s-1.1,0.4-1.7,0.4c-0.6,0-1.2-0.1-1.7-0.3
			c-0.5-0.2-1-0.5-1.3-0.8c-0.4-0.4-0.6-0.8-0.8-1.4c-0.2-0.6-0.3-1.1-0.3-1.8c0-0.6,0.1-1.3,0.3-1.8c0.2-0.6,0.5-1,0.8-1.3
			c0.4-0.4,0.8-0.6,1.3-0.8S76.4,36.7,77,36.7z M77,43.8c0.7,0,1.2-0.2,1.5-0.7s0.5-1.2,0.5-2c0-0.9-0.1-1.6-0.5-2.1
			c-0.4-0.5-0.8-0.7-1.5-0.7c-0.7,0-1.3,0.2-1.5,0.7c-0.4,0.5-0.5,1.2-0.5,2c0,0.8,0.1,1.6,0.5,2C75.8,43.6,76.3,43.8,77,43.8z"/>
		<path class="st0" d="M82.2,38c1-0.9,2.1-1.3,3.5-1.3c0.5,0,0.9,0.1,1.3,0.2s0.7,0.4,1,0.7c0.3,0.3,0.5,0.6,0.6,1.1
			c0.1,0.4,0.2,0.8,0.2,1.3v5.3h-0.9c-0.2,0-0.4,0-0.4-0.1c-0.1-0.1-0.2-0.1-0.3-0.4L87,44.3c-0.2,0.2-0.4,0.4-0.6,0.5
			c-0.2,0.1-0.4,0.3-0.6,0.4c-0.2,0.1-0.4,0.1-0.7,0.2s-0.5,0.1-0.8,0.1c-0.4,0-0.7-0.1-1-0.1c-0.3-0.1-0.6-0.2-0.8-0.4
			c-0.2-0.2-0.4-0.4-0.5-0.7c-0.1-0.3-0.2-0.6-0.2-1c0-0.2,0.1-0.4,0.1-0.6c0.1-0.2,0.2-0.4,0.4-0.6c0.1-0.2,0.4-0.4,0.6-0.6
			c0.3-0.1,0.6-0.4,0.9-0.4c0.4-0.1,0.8-0.2,1.3-0.3c0.5-0.1,1.1-0.1,1.7-0.1V40c0-0.6-0.1-1-0.4-1.3c-0.2-0.3-0.6-0.4-1.1-0.4
			c-0.4,0-0.6,0.1-0.8,0.1c-0.2,0.1-0.4,0.1-0.6,0.3c-0.1,0.1-0.3,0.2-0.4,0.3c-0.1,0.1-0.3,0.1-0.4,0.1c-0.1,0-0.3-0.1-0.4-0.1
			c-0.1-0.1-0.2-0.1-0.2-0.3L82.2,38z M86.8,41.7c-0.6,0-1.1,0.1-1.5,0.1c-0.4,0.1-0.7,0.1-1,0.3c-0.2,0.1-0.4,0.3-0.5,0.4
			c-0.1,0.1-0.1,0.4-0.1,0.5c0,0.4,0.1,0.6,0.4,0.8c0.2,0.1,0.5,0.2,0.8,0.2c0.4,0,0.8-0.1,1.1-0.2s0.6-0.4,0.9-0.7L86.8,41.7
			L86.8,41.7z"/>
		<path class="st0" d="M97.7,33.1v12.2h-1.3c-0.3,0-0.4-0.1-0.5-0.4L95.8,44c-0.4,0.4-0.7,0.7-1.2,0.9s-1,0.4-1.5,0.4
			c-0.5,0-0.9-0.1-1.3-0.3c-0.4-0.2-0.7-0.5-1-0.8c-0.3-0.4-0.5-0.8-0.6-1.3C90,42.3,90,41.7,90,41c0-0.6,0.1-1.2,0.3-1.8
			c0.1-0.6,0.4-1,0.7-1.4c0.3-0.4,0.7-0.7,1.1-0.9s0.9-0.4,1.5-0.4c0.5,0,0.8,0.1,1.2,0.2c0.4,0.1,0.6,0.4,0.9,0.6v-4.4H97.7z
			 M95.6,39c-0.2-0.3-0.5-0.5-0.8-0.6c-0.3-0.1-0.6-0.1-0.8-0.1c-0.3,0-0.6,0.1-0.8,0.1c-0.3,0.1-0.5,0.3-0.6,0.5
			c-0.1,0.2-0.3,0.6-0.4,0.9S92,40.6,92,41.1s0.1,0.9,0.1,1.3c0.1,0.4,0.2,0.6,0.4,0.8s0.4,0.4,0.6,0.5c0.2,0.1,0.4,0.1,0.7,0.1
			c0.4,0,0.8-0.1,1.1-0.3s0.6-0.4,0.8-0.8C95.6,42.8,95.6,39,95.6,39z"/>
	</g>
</g>
</svg>
