<svg xmlns="http://www.w3.org/2000/svg" xmlns:xlink="http://www.w3.org/1999/xlink" width="500" zoomAndPan="magnify" viewBox="0 0 375 374.999991" height="500" preserveAspectRatio="xMidYMid meet" version="1.0"><defs><clipPath id="d7730cecb6"><path d="M 8.742188 8.742188 L 366.492188 8.742188 L 366.492188 366.492188 L 8.742188 366.492188 Z M 8.742188 8.742188 " clip-rule="nonzero"/></clipPath><clipPath id="316165f6be"><path d="M 54.644531 54.644531 L 320.144531 54.644531 L 320.144531 320.144531 L 54.644531 320.144531 Z M 54.644531 54.644531 " clip-rule="nonzero"/></clipPath></defs><g clip-path="url(#d7730cecb6)"><path fill="#00a3ff" d="M 311.453125 8.742188 L 63.78125 8.742188 C 33.386719 8.742188 8.742188 33.386719 8.742188 63.78125 L 8.742188 311.453125 C 8.742188 341.847656 33.386719 366.492188 63.78125 366.492188 L 311.453125 366.492188 C 341.847656 366.492188 366.492188 341.847656 366.492188 311.453125 L 366.492188 63.78125 C 366.492188 33.386719 341.847656 8.742188 311.453125 8.742188 Z M 338.972656 311.453125 C 338.972656 326.644531 326.628906 338.972656 311.453125 338.972656 L 63.78125 338.972656 C 48.589844 338.972656 36.261719 326.644531 36.261719 311.453125 L 36.261719 63.78125 C 36.261719 48.601562 48.589844 36.261719 63.78125 36.261719 L 311.453125 36.261719 C 326.628906 36.261719 338.972656 48.601562 338.972656 63.78125 Z M 338.972656 311.453125 " fill-opacity="1" fill-rule="nonzero"/></g><g clip-path="url(#316165f6be)"><path fill="#00a3ff" d="M 320.144531 187.394531 C 320.144531 260.738281 260.738281 320.144531 187.394531 320.144531 C 114.050781 320.144531 54.644531 260.738281 54.644531 187.394531 C 54.644531 114.050781 114.050781 54.644531 187.394531 54.644531 C 260.738281 54.644531 320.144531 114.050781 320.144531 187.394531 Z M 163.101562 257.421875 C 221.976562 257.421875 254.167969 208.636719 254.167969 166.355469 C 254.167969 164.960938 254.167969 163.566406 254.101562 162.238281 C 260.339844 157.726562 265.785156 152.082031 270.097656 145.644531 C 264.390625 148.167969 258.21875 149.894531 251.710938 150.691406 C 258.351562 146.707031 263.394531 140.46875 265.785156 132.96875 C 259.609375 136.617188 252.773438 139.273438 245.472656 140.734375 C 239.632812 134.496094 231.335938 130.644531 222.109375 130.644531 C 204.453125 130.644531 190.117188 144.980469 190.117188 162.636719 C 190.117188 165.160156 190.382812 167.617188 190.980469 169.9375 C 164.363281 168.609375 140.800781 155.867188 125.003906 136.484375 C 122.28125 141.199219 120.6875 146.707031 120.6875 152.546875 C 120.6875 163.632812 126.332031 173.457031 134.960938 179.164062 C 129.714844 179.03125 124.804688 177.570312 120.488281 175.183594 C 120.488281 175.316406 120.488281 175.449219 120.488281 175.582031 C 120.488281 191.113281 131.507812 203.988281 146.175781 206.976562 C 143.519531 207.707031 140.667969 208.105469 137.746094 208.105469 C 135.6875 208.105469 133.699219 207.90625 131.707031 207.507812 C 135.753906 220.25 147.570312 229.476562 161.574219 229.742188 C 150.625 238.304688 136.816406 243.414062 121.816406 243.414062 C 119.226562 243.414062 116.707031 243.28125 114.183594 242.949219 C 128.1875 252.109375 145.046875 257.421875 163.101562 257.421875 " fill-opacity="1" fill-rule="nonzero"/></g></svg>