<svg xmlns="http://www.w3.org/2000/svg" xmlns:xlink="http://www.w3.org/1999/xlink" width="500" zoomAndPan="magnify" viewBox="0 0 375 374.999991" height="500" preserveAspectRatio="xMidYMid meet" version="1.0"><defs><clipPath id="21772dacc1"><path d="M 59.902344 68.644531 L 314.902344 68.644531 L 314.902344 323.644531 L 59.902344 323.644531 Z M 59.902344 68.644531 " clip-rule="nonzero"/></clipPath><clipPath id="b983695c3e"><path d="M 8.742188 17.484375 L 366.492188 17.484375 L 366.492188 375 L 8.742188 375 Z M 8.742188 17.484375 " clip-rule="nonzero"/></clipPath></defs><g clip-path="url(#21772dacc1)"><path fill="#00a3ff" d="M 187.347656 91.636719 C 221.375 91.636719 225.394531 91.746094 238.859375 92.363281 C 251.265625 92.921875 258.023438 94.988281 262.550781 96.777344 C 268.472656 99.066406 272.71875 101.859375 277.1875 106.332031 C 281.660156 110.800781 284.398438 115.046875 286.742188 120.96875 C 288.476562 125.4375 290.542969 132.199219 291.15625 144.660156 C 291.773438 158.125 291.882812 162.144531 291.882812 196.171875 C 291.882812 230.199219 291.773438 234.222656 291.15625 247.6875 C 290.597656 260.089844 288.53125 266.851562 286.742188 271.375 C 284.453125 277.296875 281.660156 281.542969 277.1875 286.015625 C 272.71875 290.484375 268.472656 293.222656 262.550781 295.570312 C 258.082031 297.300781 251.320312 299.367188 238.859375 299.984375 C 225.394531 300.597656 221.375 300.707031 187.347656 300.707031 C 153.320312 300.707031 149.296875 300.597656 135.832031 299.984375 C 123.429688 299.425781 116.667969 297.355469 112.144531 295.570312 C 106.222656 293.277344 101.972656 290.484375 97.503906 286.015625 C 93.035156 281.542969 90.296875 277.296875 87.949219 271.375 C 86.21875 266.90625 84.152344 260.144531 83.535156 247.6875 C 82.921875 234.222656 82.808594 230.199219 82.808594 196.171875 C 82.808594 162.144531 82.921875 158.125 83.535156 144.660156 C 84.09375 132.253906 86.164062 125.496094 87.949219 120.96875 C 90.242188 115.046875 93.035156 110.800781 97.503906 106.332031 C 101.972656 101.859375 106.222656 99.121094 112.144531 96.777344 C 116.613281 95.042969 123.375 92.976562 135.832031 92.363281 C 149.296875 91.746094 153.320312 91.636719 187.347656 91.636719 M 187.347656 68.671875 C 152.707031 68.671875 148.402344 68.839844 134.769531 69.453125 C 121.195312 70.070312 111.917969 72.25 103.816406 75.378906 C 95.4375 78.617188 88.339844 82.976562 81.246094 90.070312 C 74.207031 97.167969 69.847656 104.261719 66.609375 112.644531 C 63.480469 120.746094 61.300781 130.019531 60.683594 143.597656 C 60.070312 157.171875 59.902344 161.53125 59.902344 196.117188 C 59.902344 230.757812 60.070312 235.058594 60.683594 248.691406 C 61.300781 262.269531 63.480469 271.542969 66.609375 279.644531 C 69.847656 288.027344 74.207031 295.121094 81.300781 302.21875 C 88.398438 309.3125 95.492188 313.671875 103.875 316.910156 C 111.976562 320.039062 121.25 322.21875 134.828125 322.835938 C 148.402344 323.449219 152.761719 323.617188 187.402344 323.617188 C 222.042969 323.617188 226.347656 323.449219 239.976562 322.835938 C 253.554688 322.21875 262.832031 320.039062 270.929688 316.910156 C 279.3125 313.671875 286.40625 309.3125 293.503906 302.21875 C 300.601562 295.121094 304.957031 288.027344 308.199219 279.644531 C 311.328125 271.542969 313.507812 262.269531 314.121094 248.691406 C 314.734375 235.113281 314.902344 230.757812 314.902344 196.117188 C 314.902344 161.476562 314.734375 157.171875 314.121094 143.539062 C 313.507812 129.964844 311.328125 120.6875 308.199219 112.585938 C 304.957031 104.207031 300.601562 97.109375 293.503906 90.015625 C 286.40625 82.917969 279.3125 78.5625 270.929688 75.320312 C 262.832031 72.191406 253.554688 70.011719 239.976562 69.398438 C 226.34375 68.839844 221.988281 68.671875 187.347656 68.671875 " fill-opacity="1" fill-rule="nonzero"/></g><path fill="#00a3ff" d="M 187.347656 130.691406 C 151.199219 130.691406 121.921875 159.96875 121.921875 196.117188 C 121.921875 232.265625 151.253906 261.597656 187.402344 261.597656 C 223.550781 261.597656 252.886719 232.320312 252.886719 196.117188 C 252.828125 159.96875 223.496094 130.691406 187.347656 130.691406 M 187.347656 238.636719 C 163.878906 238.636719 144.882812 219.636719 144.882812 196.171875 C 144.882812 172.707031 163.878906 153.710938 187.347656 153.710938 C 210.8125 153.710938 229.808594 172.707031 229.808594 196.171875 C 229.867188 219.582031 210.8125 238.636719 187.347656 238.636719 " fill-opacity="1" fill-rule="nonzero"/><path fill="#00a3ff" d="M 270.707031 128.121094 C 270.707031 136.558594 263.835938 143.429688 255.398438 143.429688 C 246.960938 143.429688 240.089844 136.558594 240.089844 128.121094 C 240.089844 119.683594 246.960938 112.8125 255.398438 112.8125 C 263.835938 112.8125 270.707031 119.628906 270.707031 128.121094 " fill-opacity="1" fill-rule="nonzero"/><g clip-path="url(#b983695c3e)"><path fill="#00a3ff" d="M 311.453125 17.484375 L 63.78125 17.484375 C 33.386719 17.484375 8.742188 42.125 8.742188 72.523438 L 8.742188 320.195312 C 8.742188 350.589844 33.386719 375.234375 63.78125 375.234375 L 311.453125 375.234375 C 341.847656 375.234375 366.492188 350.589844 366.492188 320.195312 L 366.492188 72.523438 C 366.492188 42.125 341.847656 17.484375 311.453125 17.484375 Z M 338.972656 320.195312 C 338.972656 335.386719 326.628906 347.714844 311.453125 347.714844 L 63.78125 347.714844 C 48.589844 347.714844 36.261719 335.386719 36.261719 320.195312 L 36.261719 72.523438 C 36.261719 57.34375 48.589844 45.003906 63.78125 45.003906 L 311.453125 45.003906 C 326.628906 45.003906 338.972656 57.34375 338.972656 72.523438 Z M 338.972656 320.195312 " fill-opacity="1" fill-rule="nonzero"/></g></svg>