<svg xmlns="http://www.w3.org/2000/svg" xmlns:xlink="http://www.w3.org/1999/xlink" width="500" zoomAndPan="magnify" viewBox="0 0 375 374.999991" height="500" preserveAspectRatio="xMidYMid meet" version="1.0"><defs><clipPath id="21acd034df"><path d="M 8.742188 8.742188 L 366.492188 8.742188 L 366.492188 366.492188 L 8.742188 366.492188 Z M 8.742188 8.742188 " clip-rule="nonzero"/></clipPath><clipPath id="fdbe7824a4"><path d="M 63.386719 63.386719 L 311.636719 63.386719 L 311.636719 311.636719 L 63.386719 311.636719 Z M 63.386719 63.386719 " clip-rule="nonzero"/></clipPath></defs><g clip-path="url(#21acd034df)"><path fill="#00a3ff" d="M 311.453125 8.742188 L 63.78125 8.742188 C 33.386719 8.742188 8.742188 33.386719 8.742188 63.78125 L 8.742188 311.453125 C 8.742188 341.847656 33.386719 366.492188 63.78125 366.492188 L 311.453125 366.492188 C 341.847656 366.492188 366.492188 341.847656 366.492188 311.453125 L 366.492188 63.78125 C 366.492188 33.386719 341.847656 8.742188 311.453125 8.742188 Z M 338.972656 311.453125 C 338.972656 326.644531 326.628906 338.972656 311.453125 338.972656 L 63.78125 338.972656 C 48.589844 338.972656 36.261719 326.644531 36.261719 311.453125 L 36.261719 63.78125 C 36.261719 48.601562 48.589844 36.261719 63.78125 36.261719 L 311.453125 36.261719 C 326.628906 36.261719 338.972656 48.601562 338.972656 63.78125 Z M 338.972656 311.453125 " fill-opacity="1" fill-rule="nonzero"/></g><g clip-path="url(#fdbe7824a4)"><path fill="#00a3ff" d="M 187.261719 63.257812 C 118.886719 63.257812 63.257812 118.886719 63.257812 187.261719 C 63.257812 255.636719 118.886719 311.265625 187.261719 311.265625 C 255.636719 311.265625 311.265625 255.636719 311.265625 187.261719 C 311.265625 118.886719 255.636719 63.257812 187.261719 63.257812 Z M 218.101562 191.628906 L 197.925781 191.628906 C 197.925781 223.859375 197.925781 263.546875 197.925781 263.546875 L 168.03125 263.546875 C 168.03125 263.546875 168.03125 224.246094 168.03125 191.628906 L 153.820312 191.628906 L 153.820312 166.214844 L 168.03125 166.214844 L 168.03125 149.773438 C 168.03125 138 173.625 119.605469 198.199219 119.605469 L 220.34375 119.691406 L 220.34375 144.359375 C 220.34375 144.359375 206.882812 144.359375 204.265625 144.359375 C 201.648438 144.359375 197.929688 145.667969 197.929688 151.285156 L 197.929688 166.21875 L 220.707031 166.21875 Z M 218.101562 191.628906 " fill-opacity="1" fill-rule="nonzero"/></g></svg>