<svg xmlns="http://www.w3.org/2000/svg" xmlns:xlink="http://www.w3.org/1999/xlink" width="500" zoomAndPan="magnify" viewBox="0 0 375 374.999991" height="500" preserveAspectRatio="xMidYMid meet" version="1.0"><defs><clipPath id="028e7e60ad"><path d="M 8.742188 8.742188 L 366.492188 8.742188 L 366.492188 366.492188 L 8.742188 366.492188 Z M 8.742188 8.742188 " clip-rule="nonzero"/></clipPath><clipPath id="59e560bf42"><path d="M 64.992188 64.992188 L 310.242188 64.992188 L 310.242188 310.242188 L 64.992188 310.242188 Z M 64.992188 64.992188 " clip-rule="nonzero"/></clipPath></defs><g clip-path="url(#028e7e60ad)"><path fill="#00a3ff" d="M 311.453125 8.742188 L 63.78125 8.742188 C 33.386719 8.742188 8.742188 33.386719 8.742188 63.78125 L 8.742188 311.453125 C 8.742188 341.847656 33.386719 366.492188 63.78125 366.492188 L 311.453125 366.492188 C 341.847656 366.492188 366.492188 341.847656 366.492188 311.453125 L 366.492188 63.78125 C 366.492188 33.386719 341.847656 8.742188 311.453125 8.742188 Z M 338.972656 311.453125 C 338.972656 326.644531 326.628906 338.972656 311.453125 338.972656 L 63.78125 338.972656 C 48.589844 338.972656 36.261719 326.644531 36.261719 311.453125 L 36.261719 63.78125 C 36.261719 48.601562 48.589844 36.261719 63.78125 36.261719 L 311.453125 36.261719 C 326.628906 36.261719 338.972656 48.601562 338.972656 63.78125 Z M 338.972656 311.453125 " fill-opacity="1" fill-rule="nonzero"/></g><g clip-path="url(#59e560bf42)"><path fill="#00a3ff" d="M 269.367188 310.242188 L 105.867188 310.242188 C 104.527344 310.238281 103.191406 310.171875 101.863281 310.039062 C 100.53125 309.910156 99.207031 309.710938 97.894531 309.449219 C 96.582031 309.1875 95.285156 308.863281 94.003906 308.472656 C 92.726562 308.082031 91.46875 307.632812 90.230469 307.121094 C 88.996094 306.605469 87.785156 306.035156 86.605469 305.402344 C 85.425781 304.773438 84.28125 304.085938 83.167969 303.339844 C 82.054688 302.597656 80.980469 301.800781 79.945312 300.949219 C 78.914062 300.101562 77.921875 299.203125 76.976562 298.257812 C 76.027344 297.3125 75.132812 296.320312 74.28125 295.285156 C 73.433594 294.253906 72.636719 293.179688 71.894531 292.066406 C 71.148438 290.953125 70.460938 289.808594 69.828125 288.625 C 69.199219 287.445312 68.625 286.238281 68.113281 285.003906 C 67.601562 283.765625 67.148438 282.507812 66.761719 281.226562 C 66.371094 279.945312 66.046875 278.652344 65.785156 277.339844 C 65.523438 276.027344 65.324219 274.703125 65.191406 273.371094 C 65.058594 272.039062 64.992188 270.703125 64.992188 269.367188 L 64.992188 105.867188 C 64.992188 104.527344 65.058594 103.191406 65.191406 101.863281 C 65.324219 100.53125 65.523438 99.207031 65.785156 97.894531 C 66.046875 96.582031 66.371094 95.285156 66.761719 94.003906 C 67.148438 92.726562 67.601562 91.46875 68.113281 90.230469 C 68.625 88.996094 69.199219 87.785156 69.828125 86.605469 C 70.460938 85.425781 71.148438 84.28125 71.894531 83.167969 C 72.636719 82.054688 73.433594 80.980469 74.28125 79.945312 C 75.132812 78.914062 76.027344 77.921875 76.976562 76.976562 C 77.921875 76.027344 78.914062 75.132812 79.945312 74.28125 C 80.980469 73.433594 82.054688 72.636719 83.167969 71.894531 C 84.28125 71.148438 85.425781 70.460938 86.605469 69.828125 C 87.785156 69.199219 88.996094 68.625 90.230469 68.113281 C 91.46875 67.601562 92.726562 67.148438 94.003906 66.761719 C 95.285156 66.371094 96.582031 66.046875 97.894531 65.785156 C 99.207031 65.523438 100.53125 65.324219 101.863281 65.191406 C 103.191406 65.058594 104.527344 64.992188 105.867188 64.992188 L 269.367188 64.992188 C 270.703125 64.992188 272.039062 65.058594 273.371094 65.191406 C 274.703125 65.324219 276.027344 65.523438 277.339844 65.785156 C 278.652344 66.046875 279.945312 66.371094 281.226562 66.761719 C 282.507812 67.148438 283.765625 67.601562 285.003906 68.113281 C 286.238281 68.625 287.445312 69.199219 288.625 69.828125 C 289.808594 70.460938 290.953125 71.148438 292.066406 71.894531 C 293.179688 72.636719 294.25 73.433594 295.285156 74.28125 C 296.320312 75.132812 297.3125 76.027344 298.257812 76.976562 C 299.203125 77.921875 300.101562 78.914062 300.949219 79.945312 C 301.800781 80.980469 302.597656 82.054688 303.339844 83.167969 C 304.085938 84.28125 304.773438 85.425781 305.402344 86.605469 C 306.035156 87.785156 306.605469 88.996094 307.121094 90.230469 C 307.632812 91.46875 308.082031 92.726562 308.472656 94.003906 C 308.863281 95.285156 309.1875 96.582031 309.449219 97.894531 C 309.710938 99.207031 309.910156 100.53125 310.039062 101.863281 C 310.171875 103.191406 310.238281 104.527344 310.242188 105.867188 L 310.242188 269.367188 C 310.238281 270.703125 310.171875 272.039062 310.039062 273.371094 C 309.910156 274.703125 309.710938 276.027344 309.449219 277.339844 C 309.1875 278.652344 308.863281 279.945312 308.472656 281.226562 C 308.082031 282.507812 307.632812 283.765625 307.121094 285.003906 C 306.605469 286.238281 306.035156 287.445312 305.402344 288.625 C 304.773438 289.808594 304.085938 290.953125 303.339844 292.066406 C 302.597656 293.179688 301.800781 294.25 300.949219 295.285156 C 300.101562 296.320312 299.203125 297.3125 298.257812 298.257812 C 297.3125 299.203125 296.320312 300.101562 295.285156 300.949219 C 294.25 301.800781 293.179688 302.597656 292.066406 303.339844 C 290.953125 304.085938 289.808594 304.773438 288.625 305.402344 C 287.445312 306.035156 286.238281 306.605469 285.003906 307.121094 C 283.765625 307.632812 282.507812 308.082031 281.226562 308.472656 C 279.945312 308.863281 278.652344 309.1875 277.339844 309.449219 C 276.027344 309.710938 274.703125 309.910156 273.371094 310.039062 C 272.039062 310.171875 270.703125 310.238281 269.367188 310.242188 Z M 105.867188 92.242188 C 104.972656 92.242188 104.085938 92.328125 103.207031 92.503906 C 102.332031 92.679688 101.480469 92.9375 100.652344 93.277344 C 99.824219 93.621094 99.039062 94.039062 98.296875 94.539062 C 97.554688 95.035156 96.863281 95.601562 96.230469 96.230469 C 95.601562 96.863281 95.035156 97.554688 94.539062 98.296875 C 94.039062 99.039062 93.621094 99.824219 93.277344 100.652344 C 92.9375 101.480469 92.679688 102.332031 92.503906 103.207031 C 92.328125 104.085938 92.242188 104.972656 92.242188 105.867188 L 92.242188 269.367188 C 92.242188 270.261719 92.328125 271.148438 92.503906 272.023438 C 92.679688 272.902344 92.9375 273.753906 93.277344 274.582031 C 93.621094 275.40625 94.039062 276.191406 94.539062 276.9375 C 95.035156 277.679688 95.601562 278.367188 96.230469 279 C 96.863281 279.632812 97.554688 280.199219 98.296875 280.695312 C 99.039062 281.191406 99.824219 281.613281 100.652344 281.953125 C 101.480469 282.296875 102.332031 282.554688 103.207031 282.730469 C 104.085938 282.902344 104.972656 282.992188 105.867188 282.992188 L 269.367188 282.992188 C 270.261719 282.992188 271.148438 282.902344 272.023438 282.730469 C 272.902344 282.554688 273.753906 282.296875 274.582031 281.953125 C 275.40625 281.613281 276.191406 281.191406 276.9375 280.695312 C 277.679688 280.199219 278.367188 279.632812 279 279 C 279.632812 278.367188 280.199219 277.679688 280.695312 276.9375 C 281.191406 276.191406 281.613281 275.40625 281.953125 274.582031 C 282.296875 273.753906 282.554688 272.902344 282.730469 272.023438 C 282.902344 271.148438 282.992188 270.261719 282.992188 269.367188 L 282.992188 105.867188 C 282.992188 104.972656 282.902344 104.085938 282.730469 103.207031 C 282.554688 102.332031 282.296875 101.480469 281.953125 100.652344 C 281.613281 99.824219 281.191406 99.039062 280.695312 98.296875 C 280.199219 97.554688 279.632812 96.863281 279 96.230469 C 278.367188 95.597656 277.679688 95.035156 276.9375 94.539062 C 276.191406 94.039062 275.40625 93.621094 274.582031 93.277344 C 273.753906 92.9375 272.902344 92.679688 272.023438 92.503906 C 271.148438 92.328125 270.261719 92.242188 269.367188 92.242188 Z M 105.867188 92.242188 " fill-opacity="1" fill-rule="nonzero"/></g><path fill="#00a3ff" d="M 133.117188 255.742188 C 132.222656 255.742188 131.335938 255.652344 130.457031 255.480469 C 129.582031 255.304688 128.730469 255.046875 127.902344 254.703125 C 127.074219 254.363281 126.289062 253.941406 125.546875 253.445312 C 124.804688 252.949219 124.113281 252.382812 123.480469 251.75 C 122.847656 251.117188 122.285156 250.429688 121.789062 249.6875 C 121.289062 248.941406 120.871094 248.15625 120.527344 247.332031 C 120.1875 246.503906 119.929688 245.652344 119.753906 244.773438 C 119.578125 243.898438 119.492188 243.011719 119.492188 242.117188 L 119.492188 173.992188 C 119.492188 173.097656 119.578125 172.210938 119.753906 171.332031 C 119.929688 170.457031 120.1875 169.605469 120.527344 168.777344 C 120.871094 167.949219 121.289062 167.164062 121.789062 166.421875 C 122.285156 165.679688 122.847656 164.988281 123.480469 164.355469 C 124.113281 163.722656 124.804688 163.160156 125.546875 162.664062 C 126.289062 162.164062 127.074219 161.746094 127.902344 161.402344 C 128.730469 161.0625 129.582031 160.804688 130.457031 160.628906 C 131.335938 160.453125 132.222656 160.367188 133.117188 160.367188 C 134.011719 160.367188 134.898438 160.453125 135.773438 160.628906 C 136.652344 160.804688 137.503906 161.0625 138.332031 161.402344 C 139.15625 161.746094 139.941406 162.164062 140.6875 162.664062 C 141.429688 163.160156 142.117188 163.722656 142.75 164.355469 C 143.382812 164.988281 143.949219 165.679688 144.445312 166.421875 C 144.941406 167.164062 145.363281 167.949219 145.703125 168.777344 C 146.046875 169.605469 146.304688 170.457031 146.480469 171.332031 C 146.652344 172.210938 146.742188 173.097656 146.742188 173.992188 L 146.742188 242.117188 C 146.742188 243.011719 146.652344 243.898438 146.480469 244.773438 C 146.304688 245.652344 146.046875 246.503906 145.703125 247.332031 C 145.363281 248.15625 144.941406 248.941406 144.445312 249.6875 C 143.949219 250.429688 143.382812 251.117188 142.75 251.75 C 142.117188 252.382812 141.429688 252.949219 140.6875 253.445312 C 139.941406 253.941406 139.15625 254.363281 138.332031 254.703125 C 137.503906 255.046875 136.652344 255.304688 135.773438 255.480469 C 134.898438 255.652344 134.011719 255.742188 133.117188 255.742188 Z M 133.117188 255.742188 " fill-opacity="1" fill-rule="nonzero"/><path fill="#00a3ff" d="M 133.117188 146.878906 C 132.21875 146.878906 131.332031 146.792969 130.453125 146.621094 C 129.574219 146.449219 128.722656 146.195312 127.890625 145.851562 C 127.0625 145.511719 126.277344 145.09375 125.53125 144.597656 C 124.78125 144.105469 124.09375 143.539062 123.457031 142.910156 C 122.820312 142.277344 122.253906 141.589844 121.753906 140.847656 C 121.253906 140.105469 120.828125 139.320312 120.484375 138.492188 C 120.136719 137.667969 119.875 136.8125 119.695312 135.9375 C 119.519531 135.058594 119.425781 134.171875 119.425781 133.273438 C 119.421875 132.378906 119.503906 131.492188 119.675781 130.613281 C 119.847656 129.734375 120.101562 128.878906 120.441406 128.050781 C 120.777344 127.21875 121.195312 126.433594 121.691406 125.683594 C 122.183594 124.9375 122.746094 124.246094 123.375 123.609375 C 124.007812 122.972656 124.691406 122.402344 125.433594 121.902344 C 126.179688 121.398438 126.960938 120.976562 127.789062 120.628906 C 128.613281 120.28125 129.464844 120.015625 130.34375 119.835938 C 131.222656 119.65625 132.109375 119.566406 133.003906 119.558594 C 133.898438 119.554688 134.789062 119.636719 135.667969 119.804688 C 136.546875 119.976562 137.402344 120.230469 138.230469 120.566406 C 139.0625 120.90625 139.851562 121.320312 140.597656 121.8125 C 141.347656 122.304688 142.039062 122.867188 142.675781 123.496094 C 143.316406 124.125 143.886719 124.8125 144.386719 125.550781 C 144.890625 126.292969 145.316406 127.078125 145.664062 127.902344 C 146.011719 128.726562 146.277344 129.578125 146.460938 130.457031 C 146.640625 131.335938 146.734375 132.21875 146.742188 133.117188 L 146.742188 133.253906 C 146.742188 134.148438 146.652344 135.035156 146.480469 135.910156 C 146.304688 136.789062 146.046875 137.640625 145.703125 138.46875 C 145.363281 139.292969 144.941406 140.078125 144.445312 140.824219 C 143.949219 141.566406 143.382812 142.253906 142.75 142.886719 C 142.117188 143.519531 141.429688 144.085938 140.6875 144.582031 C 139.941406 145.078125 139.15625 145.5 138.332031 145.839844 C 137.503906 146.183594 136.652344 146.441406 135.773438 146.617188 C 134.898438 146.789062 134.011719 146.878906 133.117188 146.878906 Z M 133.117188 146.878906 " fill-opacity="1" fill-rule="nonzero"/><path fill="#00a3ff" d="M 187.617188 255.742188 C 186.722656 255.742188 185.835938 255.652344 184.957031 255.480469 C 184.082031 255.304688 183.230469 255.046875 182.402344 254.703125 C 181.574219 254.363281 180.789062 253.941406 180.046875 253.445312 C 179.304688 252.949219 178.613281 252.382812 177.980469 251.75 C 177.351562 251.117188 176.785156 250.429688 176.289062 249.6875 C 175.789062 248.941406 175.371094 248.15625 175.027344 247.332031 C 174.6875 246.503906 174.429688 245.652344 174.253906 244.773438 C 174.078125 243.898438 173.992188 243.011719 173.992188 242.117188 L 173.992188 173.992188 C 173.992188 173.097656 174.078125 172.210938 174.253906 171.332031 C 174.429688 170.457031 174.6875 169.605469 175.027344 168.777344 C 175.371094 167.949219 175.789062 167.164062 176.289062 166.421875 C 176.785156 165.679688 177.351562 164.988281 177.980469 164.355469 C 178.613281 163.722656 179.304688 163.160156 180.046875 162.664062 C 180.789062 162.164062 181.574219 161.746094 182.402344 161.402344 C 183.230469 161.0625 184.082031 160.804688 184.957031 160.628906 C 185.835938 160.453125 186.722656 160.367188 187.617188 160.367188 C 188.511719 160.367188 189.398438 160.453125 190.273438 160.628906 C 191.152344 160.804688 192.003906 161.0625 192.832031 161.402344 C 193.65625 161.746094 194.441406 162.164062 195.1875 162.664062 C 195.929688 163.160156 196.617188 163.722656 197.25 164.355469 C 197.882812 164.988281 198.449219 165.679688 198.945312 166.421875 C 199.441406 167.164062 199.863281 167.949219 200.203125 168.777344 C 200.546875 169.605469 200.804688 170.457031 200.980469 171.332031 C 201.152344 172.210938 201.242188 173.097656 201.242188 173.992188 L 201.242188 242.117188 C 201.242188 243.011719 201.152344 243.898438 200.980469 244.773438 C 200.804688 245.652344 200.546875 246.503906 200.203125 247.332031 C 199.863281 248.15625 199.441406 248.941406 198.945312 249.6875 C 198.449219 250.429688 197.882812 251.117188 197.25 251.75 C 196.617188 252.382812 195.929688 252.949219 195.1875 253.445312 C 194.441406 253.941406 193.65625 254.363281 192.832031 254.703125 C 192.003906 255.046875 191.152344 255.304688 190.273438 255.480469 C 189.398438 255.652344 188.511719 255.742188 187.617188 255.742188 Z M 187.617188 255.742188 " fill-opacity="1" fill-rule="nonzero"/><path fill="#00a3ff" d="M 242.117188 255.742188 C 241.222656 255.742188 240.335938 255.652344 239.457031 255.480469 C 238.582031 255.304688 237.730469 255.046875 236.902344 254.703125 C 236.074219 254.363281 235.289062 253.941406 234.546875 253.445312 C 233.804688 252.949219 233.113281 252.382812 232.480469 251.75 C 231.847656 251.117188 231.285156 250.429688 230.789062 249.6875 C 230.289062 248.941406 229.871094 248.15625 229.527344 247.332031 C 229.1875 246.503906 228.929688 245.652344 228.753906 244.773438 C 228.578125 243.898438 228.492188 243.011719 228.492188 242.117188 L 228.492188 201.242188 C 228.492188 200.347656 228.402344 199.460938 228.230469 198.582031 C 228.054688 197.707031 227.796875 196.855469 227.453125 196.027344 C 227.113281 195.199219 226.691406 194.414062 226.195312 193.671875 C 225.699219 192.929688 225.132812 192.238281 224.5 191.605469 C 223.867188 190.972656 223.179688 190.410156 222.4375 189.914062 C 221.691406 189.414062 220.90625 188.996094 220.082031 188.652344 C 219.253906 188.3125 218.402344 188.054688 217.523438 187.878906 C 216.648438 187.703125 215.761719 187.617188 214.867188 187.617188 C 213.972656 187.617188 213.085938 187.703125 212.207031 187.878906 C 211.332031 188.054688 210.480469 188.3125 209.652344 188.652344 C 208.824219 188.996094 208.039062 189.414062 207.296875 189.914062 C 206.554688 190.410156 205.863281 190.972656 205.230469 191.605469 C 204.597656 192.238281 204.035156 192.929688 203.539062 193.671875 C 203.039062 194.414062 202.621094 195.199219 202.277344 196.027344 C 201.9375 196.855469 201.679688 197.707031 201.503906 198.582031 C 201.328125 199.460938 201.242188 200.347656 201.242188 201.242188 C 201.242188 202.136719 201.152344 203.023438 200.980469 203.898438 C 200.804688 204.777344 200.546875 205.628906 200.203125 206.457031 C 199.863281 207.28125 199.441406 208.066406 198.945312 208.8125 C 198.449219 209.554688 197.882812 210.242188 197.25 210.875 C 196.617188 211.507812 195.929688 212.074219 195.1875 212.570312 C 194.441406 213.066406 193.65625 213.488281 192.832031 213.828125 C 192.003906 214.171875 191.152344 214.429688 190.273438 214.605469 C 189.398438 214.777344 188.511719 214.867188 187.617188 214.867188 C 186.722656 214.867188 185.835938 214.777344 184.957031 214.605469 C 184.082031 214.429688 183.230469 214.171875 182.402344 213.828125 C 181.574219 213.488281 180.789062 213.066406 180.046875 212.570312 C 179.304688 212.074219 178.613281 211.507812 177.980469 210.875 C 177.351562 210.242188 176.785156 209.554688 176.289062 208.8125 C 175.789062 208.066406 175.371094 207.28125 175.027344 206.457031 C 174.6875 205.628906 174.429688 204.777344 174.253906 203.898438 C 174.078125 203.023438 173.992188 202.136719 173.992188 201.242188 C 173.992188 199.902344 174.058594 198.566406 174.1875 197.234375 C 174.320312 195.902344 174.515625 194.582031 174.777344 193.265625 C 175.039062 191.953125 175.363281 190.65625 175.75 189.375 C 176.140625 188.09375 176.589844 186.835938 177.101562 185.597656 C 177.617188 184.363281 178.1875 183.152344 178.816406 181.972656 C 179.449219 180.792969 180.136719 179.644531 180.878906 178.53125 C 181.625 177.417969 182.421875 176.34375 183.269531 175.3125 C 184.117188 174.277344 185.015625 173.285156 185.964844 172.339844 C 186.910156 171.390625 187.902344 170.492188 188.9375 169.644531 C 189.96875 168.796875 191.042969 168 192.15625 167.253906 C 193.269531 166.511719 194.417969 165.824219 195.597656 165.191406 C 196.777344 164.5625 197.988281 163.992188 199.222656 163.476562 C 200.460938 162.964844 201.71875 162.515625 203 162.125 C 204.28125 161.738281 205.578125 161.414062 206.890625 161.152344 C 208.207031 160.890625 209.527344 160.695312 210.859375 160.5625 C 212.191406 160.433594 213.527344 160.367188 214.867188 160.367188 C 216.207031 160.367188 217.539062 160.433594 218.871094 160.5625 C 220.207031 160.695312 221.527344 160.890625 222.839844 161.152344 C 224.152344 161.414062 225.449219 161.738281 226.730469 162.125 C 228.011719 162.515625 229.273438 162.964844 230.507812 163.476562 C 231.746094 163.992188 232.953125 164.5625 234.136719 165.191406 C 235.316406 165.824219 236.460938 166.511719 237.574219 167.253906 C 238.6875 168 239.761719 168.796875 240.796875 169.644531 C 241.832031 170.492188 242.824219 171.390625 243.769531 172.339844 C 244.714844 173.285156 245.613281 174.277344 246.464844 175.3125 C 247.3125 176.34375 248.109375 177.417969 248.851562 178.53125 C 249.597656 179.644531 250.285156 180.792969 250.914062 181.972656 C 251.546875 183.152344 252.117188 184.363281 252.628906 185.597656 C 253.140625 186.835938 253.59375 188.09375 253.980469 189.375 C 254.371094 190.65625 254.695312 191.953125 254.957031 193.265625 C 255.21875 194.582031 255.414062 195.902344 255.542969 197.234375 C 255.675781 198.566406 255.742188 199.902344 255.742188 201.242188 L 255.742188 242.117188 C 255.742188 243.011719 255.652344 243.898438 255.480469 244.773438 C 255.304688 245.652344 255.046875 246.503906 254.703125 247.332031 C 254.363281 248.15625 253.941406 248.941406 253.445312 249.6875 C 252.949219 250.429688 252.382812 251.117188 251.75 251.75 C 251.117188 252.382812 250.429688 252.949219 249.6875 253.445312 C 248.941406 253.941406 248.15625 254.363281 247.332031 254.703125 C 246.503906 255.046875 245.652344 255.304688 244.773438 255.480469 C 243.898438 255.652344 243.011719 255.742188 242.117188 255.742188 Z M 242.117188 255.742188 " fill-opacity="1" fill-rule="nonzero"/></svg>